Coordinates
version=1
nRows=9
nColumns=63
inDegrees=yes

Units are S.I. units (second, meters, Newtons, ...)
If the header above contains a line with 'inDegrees', this indicates whether rotational values are in degrees (yes) or radians (no).

endheader
time	pelvis_tilt	pelvis_list	pelvis_rotation	pelvis_tx	pelvis_ty	pelvis_tz	hip_flexion_r	hip_adduction_r	hip_rotation_r	knee_angle_r	knee_angle_r_beta	ankle_angle_r	subtalar_angle_r	mtp_angle_r	hip_flexion_l	hip_adduction_l	hip_rotation_l	knee_angle_l	knee_angle_l_beta	ankle_angle_l	subtalar_angle_l	mtp_angle_l	L5_S1_Flex_Ext	L5_S1_Lat_Bending	L5_S1_axial_rotation	L4_L5_Flex_Ext	L4_L5_Lat_Bending	L4_L5_axial_rotation	L3_L4_Flex_Ext	L3_L4_Lat_Bending	L3_L4_axial_rotation	L2_L3_Flex_Ext	L2_L3_Lat_Bending	L2_L3_axial_rotation	L1_L2_Flex_Ext	L1_L2_Lat_Bending	L1_L2_axial_rotation	L1_T12_Flex_Ext	L1_T12_Lat_Bending	L1_T12_axial_rotation	Abs_r3	Abs_r2	Abs_r1	Abs_t1	Abs_t2	neck_flexion	neck_bending	neck_rotation	arm_flex_r	arm_add_r	arm_rot_r	elbow_flex_r	pro_sup_r	wrist_flex_r	wrist_dev_r	arm_flex_l	arm_add_l	arm_rot_l	elbow_flex_l	pro_sup_l	wrist_flex_l	wrist_dev_l
2.952381	4.609967	-8.751453	91.127297	0.186133	0.863164	0.592441	4.170018	-1.885732	0.915482	2.539653	0.044325	22.967765	5.281725	0.000000	5.659128	-1.411872	11.063312	2.071975	0.036163	20.900533	-2.793869	0.000000	-0.224662	0.376711	-1.079028	-0.417219	0.501026	-1.146467	-0.369096	0.915936	-1.146467	-0.256766	0.915936	-0.944149	-0.208621	0.768190	-0.876710	-0.128372	0.583526	-0.809271	-1.604735	4.261433	-6.001229	0.000000	0.000000	19.059329	-5.419510	-4.093156	5.376926	-18.195876	39.445495	25.135981	79.069789	3.204997	11.705871	15.911985	-5.751161	172.315215	2.098585	5.720892	-2.922994	-5.193628
2.976190	4.639343	-8.538255	91.002611	0.186512	0.863573	0.591048	3.823047	-1.813534	1.431486	2.499603	0.043626	22.873490	4.706119	0.000000	5.253885	-1.485063	11.358654	1.944916	0.033945	20.787147	-3.394408	0.000000	-0.224742	0.376816	-1.049333	-0.417369	0.501165	-1.114916	-0.369229	0.916189	-1.114916	-0.256858	0.916189	-0.918166	-0.208696	0.768402	-0.852583	-0.128418	0.583687	-0.787000	-1.605310	4.262613	-5.836074	0.000000	0.000000	18.801001	-5.153366	-3.940917	5.146299	-18.211904	39.191002	25.144595	79.880960	3.426007	12.056850	15.894044	-5.711453	172.154847	2.067639	5.331504	-3.170304	-5.271782
3.000000	4.710708	-8.305927	90.849370	0.186959	0.863933	0.589663	3.485228	-1.690511	1.859625	2.476778	0.043228	22.873981	4.313673	0.000000	4.838696	-1.608120	11.468037	1.805825	0.031518	20.768644	-3.728401	0.000000	-0.224552	0.381024	-1.011918	-0.417015	0.506762	-1.075163	-0.368916	0.926423	-1.075163	-0.256640	0.926423	-0.885428	-0.208519	0.776985	-0.822184	-0.128309	0.590207	-0.758939	-1.603950	4.310224	-5.627986	0.000000	0.000000	18.431441	-4.946294	-3.793001	5.004351	-18.249426	39.270802	25.103388	80.376273	3.651708	12.280184	15.820448	-5.659835	171.676091	2.017274	4.971446	-3.518794	-5.419647
3.023810	4.826634	-8.046503	90.668453	0.187476	0.864236	0.588335	3.144576	-1.511999	2.254257	2.462440	0.042978	22.962440	4.035337	0.000000	4.404382	-1.781380	11.525369	1.654070	0.028869	20.823585	-3.965312	0.000000	-0.226088	0.389495	-0.967124	-0.419869	0.518028	-1.027569	-0.371441	0.947018	-1.027569	-0.258396	0.947018	-0.846233	-0.209946	0.794258	-0.785788	-0.129187	0.603328	-0.725343	-1.614927	4.406045	-5.378852	0.000000	0.000000	17.976443	-4.799754	-3.642630	4.954731	-18.279103	39.584003	24.980376	80.668774	3.897879	12.393298	15.692167	-5.595873	170.852275	1.945507	4.667326	-3.923717	-5.617914
3.047619	4.982886	-7.766871	90.474066	0.188035	0.864466	0.587058	2.804430	-1.284971	2.554326	2.472035	0.043145	23.127581	3.895218	0.000000	3.961003	-1.998743	11.468930	1.503157	0.026235	20.941582	-4.013316	0.000000	-0.226606	0.401742	-0.918297	-0.420830	0.534317	-0.975690	-0.372291	0.976795	-0.975690	-0.258988	0.976795	-0.803510	-0.210427	0.819232	-0.746116	-0.129483	0.622298	-0.688723	-1.618626	4.544584	-5.107292	0.000000	0.000000	17.439368	-4.701970	-3.487426	4.984075	-18.308046	40.169596	24.777536	80.693805	4.147681	12.385492	15.495408	-5.518755	169.752312	1.864298	4.416534	-4.388403	-5.865014
3.071429	5.176092	-7.474146	90.270508	0.188639	0.864594	0.585872	2.468228	-1.016518	2.751794	2.508941	0.043789	23.386243	3.920097	0.000000	3.520312	-2.257101	11.313737	1.362893	0.023787	21.161498	-3.878457	0.000000	-0.226160	0.417328	-0.869677	-0.420002	0.555046	-0.924032	-0.371558	1.014691	-0.924032	-0.258478	1.014691	-0.760968	-0.210012	0.851015	-0.706613	-0.129228	0.646441	-0.652258	-1.615438	4.720896	-4.836884	0.000000	0.000000	16.904448	-4.651843	-3.303557	5.087004	-18.315341	40.984291	24.477295	80.443347	4.409010	12.271150	15.243185	-5.434441	168.395025	1.800730	4.217249	-4.865355	-6.128380
3.095238	5.373138	-7.168971	90.027896	0.189295	0.864653	0.584769	2.120966	-0.735063	3.026248	2.542321	0.044372	23.638548	3.884684	0.000000	3.072238	-2.521067	10.917155	1.229263	0.021455	21.446523	-3.436430	0.000000	-0.223809	0.431232	-0.815024	-0.415636	0.573538	-0.865963	-0.367696	1.048497	-0.865963	-0.255791	1.048497	-0.713146	-0.207829	0.879367	-0.662207	-0.127884	0.667978	-0.611268	-1.598645	4.878178	-4.532922	0.000000	0.000000	16.354955	-4.631585	-3.238624	5.205728	-18.286156	41.766813	24.118285	80.412000	4.631283	12.060958	14.950470	-5.362550	166.665468	1.823214	4.012092	-5.392599	-6.431571
3.119048	5.567563	-6.853905	89.775706	0.189956	0.864648	0.583779	1.782384	-0.461808	3.081353	2.623874	0.045795	23.928932	4.171424	0.000000	2.624334	-2.779372	10.508540	1.105610	0.019297	21.760563	-2.967521	0.000000	-0.220879	0.443930	-0.768927	-0.410194	0.590427	-0.816985	-0.362881	1.079372	-0.816985	-0.252442	1.079372	-0.672811	-0.205108	0.905263	-0.624753	-0.126210	0.687648	-0.576695	-1.577714	5.021827	-4.276540	0.000000	0.000000	15.872688	-4.580315	-3.105813	5.400808	-18.225190	42.803116	23.680485	80.202859	4.800563	11.769986	14.607733	-5.307690	164.715495	1.875821	3.783935	-5.877838	-6.717776
3.142857	5.755084	-6.547032	89.525480	0.190588	0.864583	0.582925	1.465874	-0.204299	2.925590	2.751542	0.048023	24.212574	4.747583	0.000000	2.201472	-3.024276	10.044444	1.003708	0.017518	22.099077	-2.418431	0.000000	-0.215929	0.455107	-0.731385	-0.401001	0.605292	-0.777096	-0.354749	1.106546	-0.777096	-0.246785	1.106546	-0.639962	-0.200511	0.928054	-0.594250	-0.123382	0.704960	-0.548538	-1.542356	5.148258	-4.067742	0.000000	0.000000	15.495971	-4.484376	-2.926010	5.667160	-18.150772	44.161368	23.194704	79.621529	4.949012	11.409175	14.234479	-5.267185	162.656959	1.956527	3.608026	-6.322551	-6.975267
